<svg t="1659408573103" class="icon" viewBox="0 0 1024 1024" version="1.1" xmlns="http://www.w3.org/2000/svg" p-id="1783" width="48" height="48"><path d="M512 102.4a409.6 409.6 0 0 1 12.8 818.9952L512 921.6a409.6 409.6 0 1 1 0-819.2z m0 76.8c-31.232 0-61.44 4.3008-90.0608 12.288-25.1904 45.8752-45.056 91.648-59.4944 137.4208a642.9184 642.9184 0 0 1-99.1232-38.0928 332.032 332.032 0 0 0-31.488 41.472l-13.312-6.656c43.264 22.528 86.7328 40.0384 130.2528 52.5312a607.9488 607.9488 0 0 0-13.824 86.6304l-1.4848 21.6064H180.224a337.408 337.408 0 0 0 0 51.2h153.088c1.4336 36.352 6.3488 72.5504 14.6432 108.6464-38.7584 11.264-77.4144 26.368-115.9168 45.4656 9.3696 14.7968 19.968 28.672 31.5392 41.6768l-16.0256 7.7824a654.0288 654.0288 0 0 1 113.8176-45.4656c14.4896 45.6704 34.3552 91.1872 59.7504 136.5504a333.9776 333.9776 0 0 0 116.5312 11.5712v-169.7792c25.856 1.1264 51.8144 4.1472 77.824 9.216-14.1312 44.032-33.792 88.064-59.136 132.096l-13.1072 22.016-4.0448 6.3488c23.04-1.8944 45.4144-6.0928 66.8672-12.3904 25.2928-45.2608 45.056-90.7264 59.392-136.3456 26.5728 7.5264 53.248 16.9984 80.0256 28.4672l17.1008 7.68c11.4688-13.1584 21.9136-27.136 31.232-41.9328l16.4352 7.9872a730.2656 730.2656 0 0 0-131.328-51.5584c6.5024-28.672 10.9056-57.4976 13.1584-86.3744l1.28-21.6064 150.528-0.1024a337.4592 337.4592 0 0 0 0-51.2l-150.7328 0.0512a590.8992 590.8992 0 0 0-15.2064-107.3664 717.9776 717.9776 0 0 0 106.8544-39.6288l9.216-4.352a333.9776 333.9776 0 0 0-31.232-41.8816l20.3776-9.728c-39.7312 19.7632-79.2576 35.1232-118.6304 46.1312A768.1024 768.1024 0 0 0 605.184 192.512a331.776 331.776 0 0 0-66.304-12.1856l5.4784 8.96c30.464 50.9952 53.76 101.6832 70.0928 152.1152-19.3024 3.6352-38.5024 6.2464-57.7024 7.7824l-19.2 1.1776V180.224A337.408 337.408 0 0 0 512 179.2z m-25.6 495.0016v167.8336l-2.9184-4.608c-27.136-44.032-48.6912-87.9616-64.7168-131.8912l-7.5264-21.9648 7.6288-1.4336c22.528-4.096 45.056-6.7072 67.584-7.936z m0-136.6016v85.3504c-29.5936 1.4336-59.1872 5.12-88.7808 11.1616a544.0512 544.0512 0 0 1-11.9296-77.2096L384.512 537.6H486.4z m51.2 0h104.448a534.4256 534.4256 0 0 1-13.056 96.0512c-22.8864-4.5056-45.7216-7.68-68.5568-9.5232l-22.8352-1.3312V537.6zM398.5408 390.4c21.9136 4.4544 43.8784 7.5776 65.8944 9.472l22.016 1.536L486.4 486.4H384.768c1.1264-21.5552 3.584-43.2128 7.3728-64.8704l4.2496-21.7088 2.1504-9.4208z m229.632 0.512c5.9392 25.5488 10.0352 51.0464 12.288 76.4416l1.3312 19.0464H537.6V401.5616c16.384-0.6656 32.768-2.048 49.152-4.096l24.576-3.584 16.896-3.0208zM486.4 182.3232v167.7312a523.008 523.008 0 0 1-74.1376-9.216c16.2816-50.2784 39.5776-100.864 69.9904-151.7056l4.1472-6.8096z" p-id="1784"></path></svg>